<svg width="168" height="129" viewBox="0 0 168 129" fill="none" xmlns="http://www.w3.org/2000/svg">
<path d="M167.523 49.0929C166.918 21.7184 144.232 0.0910516 116.857 0.696012C104.531 0.998493 92.659 5.83818 83.7358 14.3833C74.5858 5.61132 62.411 0.696012 49.7068 0.696012C22.7104 0.696012 0.780587 22.5502 0.100006 49.6978V50.0759C0.100006 70.7958 7.66201 89.1715 14.4678 101.8C17.3414 107.093 20.5931 112.236 24.1472 117.151C25.5084 118.966 26.567 120.478 27.3989 121.461L28.3819 122.671L28.6844 123.049L28.76 123.125L28.8356 123.201C34.5071 129.78 44.4134 130.536 50.9923 124.94C51.0679 124.864 51.1436 124.789 51.2192 124.713C57.7981 118.815 58.4787 108.757 52.7316 102.103L52.656 101.951L52.051 101.271C51.5217 100.59 50.6898 99.5315 49.7068 98.1703C46.9845 94.3893 44.489 90.4571 42.296 86.3736C36.7757 76.2405 31.8604 63.3851 31.8604 50.3784C32.0873 40.5478 40.3299 32.7589 50.1605 32.9858C59.7643 33.2127 67.4019 41.0015 67.5531 50.6053C67.6287 53.0251 68.2337 55.3693 69.2924 57.5623C72.4684 65.7293 81.6941 69.8128 89.8611 66.6367C95.9107 64.2925 99.9185 58.4698 99.9941 51.9664V49.8491C100.372 40.0185 108.615 32.3052 118.521 32.6077C127.898 32.9102 135.384 40.4722 135.762 49.8491C135.687 60.2846 132.36 70.569 128.579 78.7359C127.066 81.9876 125.402 85.1636 123.512 88.1884C122.831 89.3227 122.302 90.1546 121.924 90.6083C121.773 90.9108 121.621 91.062 121.546 91.1376L121.47 91.2133L121.319 91.4401C126.764 84.5587 136.67 83.3488 143.551 88.7934C149.979 93.86 151.491 103.01 147.03 109.891L147.105 109.967V109.816L147.181 109.74L147.408 109.438C147.559 109.135 147.862 108.833 148.164 108.379C148.769 107.472 149.525 106.262 150.508 104.749C153.004 100.666 155.272 96.3554 157.314 92.0451C162.154 81.6095 167.447 66.4855 167.447 49.6222L167.523 49.0929Z" fill="#041836"/>
<path d="M133.872 85.3149C125.1 85.2393 117.992 92.3476 117.916 101.12C117.84 109.891 124.949 117 133.721 117.075C138.712 117.075 143.476 114.731 146.5 110.799C146.727 110.496 146.954 110.118 147.257 109.816C152.021 102.481 149.903 92.6501 142.568 87.9616C139.997 86.2224 136.972 85.3149 133.872 85.3149Z" fill="#B7E803"/>
</svg>
